<?xml version="1.0" standalone="no"?>
<!DOCTYPE svg PUBLIC "-//W3C//DTD SVG 20010904//EN"
 "http://www.w3.org/TR/2001/REC-SVG-20010904/DTD/svg10.dtd">
<svg version="1.0" xmlns="http://www.w3.org/2000/svg"
 width="1008.000000pt" height="1008.000000pt" viewBox="0 0 1008.000000 1008.000000"
 preserveAspectRatio="xMidYMid meet">
<metadata>
Created by potrace 1.14, written by Peter Selinger 2001-2017
</metadata>
<g transform="translate(0.000000,1008.000000) scale(0.100000,-0.100000)"
fill="#000000" stroke="none">
<path d="M2517 9083 c-2 -2 -33 -5 -68 -7 -35 -2 -82 -9 -104 -14 -22 -6 -53
-13 -69 -16 -60 -11 -178 -81 -241 -143 -56 -56 -113 -149 -140 -228 -11 -34
-36 -157 -42 -215 -9 -69 -9 -1165 -1 -1241 9 -78 18 -130 29 -159 5 -14 10
-34 12 -45 7 -38 54 -143 74 -163 7 -7 13 -17 13 -22 0 -4 27 -35 60 -68 87
-88 226 -151 370 -169 162 -20 441 3 488 40 6 5 12 6 12 3 0 -4 31 9 69 29 68
36 181 132 181 154 0 6 5 11 10 11 6 0 10 7 10 15 0 8 4 15 8 15 10 0 42 73
71 160 44 138 49 225 47 850 -2 322 -6 597 -10 612 -3 16 -8 40 -10 55 -20
147 -86 286 -177 373 -93 89 -246 152 -400 166 -84 7 -188 11 -192 7z m126
-389 c44 -9 82 -60 105 -138 3 -12 6 -336 6 -721 1 -761 1 -756 -55 -819 -69
-80 -229 -63 -277 29 -23 45 -26 129 -26 795 -1 639 1 699 17 746 35 102 106
135 230 108z"/>
<path d="M60 7835 l0 -1216 113 0 c61 0 119 0 127 0 8 -1 77 0 152 1 l136 2 1
956 c0 527 0 986 1 1022 l0 66 193 -2 c105 -1 195 -2 198 -3 3 0 5 -454 5
-1007 -1 -553 2 -1014 6 -1025 4 -11 12 -17 18 -14 8 5 160 7 250 4 14 -1 79
0 200 1 24 1 47 4 50 6 3 3 5 550 5 1215 l0 1209 -727 0 -728 0 0 -1215z"/>
<path d="M3649 7808 c-4 -91 -3 -262 2 -276 6 -16 39 -17 390 -16 l383 0 0
155 0 154 -387 3 -387 2 -1 -22z"/>
<path d="M685 6282 c-2 -2 -32 -6 -67 -8 -196 -13 -368 -107 -464 -252 -39
-57 -88 -186 -100 -256 -3 -21 -8 -48 -10 -60 -14 -69 -17 -196 -16 -681 0
-508 2 -570 17 -670 43 -277 173 -450 393 -524 102 -35 165 -44 312 -44 249
-1 399 46 517 162 78 76 138 188 159 296 2 11 6 31 9 45 13 57 18 143 19 280
l1 145 -263 1 -262 0 -1 -165 c-1 -207 -4 -241 -30 -301 -30 -70 -102 -97
-199 -77 -40 9 -90 48 -90 72 0 8 -4 15 -8 15 -5 0 -9 6 -10 13 -1 6 -6 32
-11 57 -11 49 -10 1400 1 1435 13 45 41 91 64 108 66 49 195 38 241 -22 14
-17 32 -77 38 -120 1 -14 3 -101 4 -193 l1 -168 259 0 c196 0 260 3 263 13 6
16 2 266 -6 337 -8 77 -40 199 -70 262 -78 164 -248 268 -481 293 -33 4 -63 9
-67 12 -5 2 -8 -1 -8 -7 0 -6 -5 -8 -11 -4 -11 6 -118 12 -124 6z"/>
<path d="M4475 6281 c-2 -2 -26 -5 -52 -7 -75 -6 -98 -10 -111 -18 -7 -4 -12
-5 -12 -2 0 3 -19 -2 -42 -10 -24 -9 -48 -17 -54 -18 -7 -1 -18 -6 -25 -12 -8
-5 -32 -18 -54 -29 -54 -27 -147 -119 -183 -181 -46 -79 -86 -202 -96 -298 -1
-12 -5 -27 -9 -32 -8 -14 -2 -1268 6 -1312 4 -19 14 -59 22 -90 9 -31 18 -68
21 -81 6 -31 64 -145 75 -149 5 -2 9 -10 9 -17 0 -23 129 -132 193 -163 108
-52 230 -76 392 -76 295 0 489 79 603 249 41 59 87 155 75 155 -3 0 -1 6 4 13
15 18 37 120 50 227 8 70 8 1136 0 1210 -26 224 -77 353 -184 459 -131 128
-272 176 -541 184 -46 1 -85 0 -87 -2z m151 -385 c56 -14 102 -86 111 -174 9
-79 9 -1293 0 -1367 -9 -75 -43 -145 -82 -167 -58 -33 -165 -27 -209 10 -30
26 -58 100 -62 161 -6 84 -5 1311 1 1349 3 17 7 45 9 61 8 55 60 117 105 127
14 3 30 7 35 8 14 3 64 -1 92 -8z"/>
<path d="M7371 6252 c-224 -1 -407 -6 -410 -11 -4 -5 -6 -551 -6 -1213 l0
-1203 270 0 269 0 0 513 0 512 35 0 c86 1 328 10 351 14 14 2 41 6 61 10 20 3
49 10 65 17 16 6 36 12 46 14 66 14 184 99 248 180 40 51 79 157 99 265 8 49
7 347 -3 394 -4 21 -9 46 -11 55 -10 49 -52 153 -83 200 -36 58 -104 131 -122
131 -5 0 -10 4 -10 8 0 12 -86 56 -147 76 -65 22 -102 28 -178 29 -33 1 -62 4
-65 7 -3 3 -187 4 -409 2z m431 -406 c75 -36 107 -132 102 -306 -2 -58 -5
-116 -7 -130 -10 -56 -20 -90 -28 -90 -5 0 -9 -7 -9 -15 0 -13 -51 -59 -68
-61 -4 0 -23 -4 -42 -8 -31 -6 -162 -10 -231 -7 l-26 1 1 318 1 317 50 5 c82
8 216 -4 257 -24z"/>
<path d="M1783 6228 c0 -23 -9 -572 -19 -1073 -3 -148 -6 -287 -7 -307 -1 -21
1 -38 6 -38 4 0 5 -5 1 -11 -6 -11 -9 -140 -18 -726 l-3 -253 193 0 194 0 1
83 c1 88 4 241 13 647 4 140 9 365 12 500 3 135 6 276 6 313 1 72 4 80 12 32
3 -17 8 -41 11 -55 3 -14 7 -38 10 -55 6 -41 14 -82 25 -135 6 -25 12 -61 14
-80 2 -19 11 -69 20 -110 8 -41 17 -88 20 -105 2 -16 5 -30 6 -30 1 0 3 -9 4
-20 5 -30 14 -84 26 -145 10 -50 13 -68 24 -135 3 -20 15 -83 23 -120 2 -11 6
-33 8 -50 3 -16 7 -41 10 -55 2 -14 7 -36 10 -50 2 -14 7 -40 10 -59 3 -19 7
-37 9 -40 2 -3 7 -28 10 -56 4 -27 9 -57 11 -65 2 -8 7 -31 10 -50 14 -78 25
-145 25 -152 0 -5 76 -8 169 -8 94 0 172 3 174 8 3 4 8 30 11 57 4 28 11 68
16 90 5 22 12 58 15 80 8 59 12 80 14 80 1 0 4 16 7 35 4 31 17 108 28 166 6
29 17 94 20 119 5 36 21 127 31 175 2 14 7 41 10 60 4 19 13 73 22 120 8 47
17 101 19 120 2 19 11 68 19 109 8 41 17 90 20 110 3 20 8 50 11 66 4 17 8 39
9 50 2 11 4 20 5 20 1 0 3 19 5 43 9 95 22 71 24 -45 2 -65 4 -161 6 -213 2
-52 6 -198 10 -325 14 -494 15 -555 19 -695 2 -80 5 -164 5 -187 l1 -43 190 0
191 0 -6 348 c-6 376 -12 728 -20 1192 -9 450 -13 737 -14 818 l-1 72 -279 0
-278 0 -16 -77 c-9 -43 -19 -94 -21 -113 -3 -19 -8 -46 -12 -60 -3 -14 -12
-56 -20 -95 -8 -38 -16 -79 -18 -90 -33 -157 -39 -188 -50 -250 -3 -16 -12
-61 -21 -98 -8 -37 -17 -80 -20 -95 -3 -15 -7 -38 -10 -52 -3 -14 -7 -36 -10
-50 -6 -33 -11 -55 -24 -110 -5 -25 -13 -61 -16 -80 -10 -64 -46 -224 -51
-229 -2 -2 -4 2 -5 10 -2 30 -34 212 -56 314 -4 17 -7 32 -8 35 -1 3 -5 28
-10 55 -4 28 -9 55 -11 60 -3 14 -15 81 -19 114 -2 14 -4 26 -5 26 -1 0 -3 8
-5 18 -2 10 -10 52 -18 95 -8 42 -18 93 -21 112 -3 19 -9 46 -12 60 -3 14 -6
34 -8 45 -4 24 -34 179 -41 215 -3 14 -8 36 -10 50 -3 23 -22 122 -30 160 -2
8 -4 18 -4 23 -1 4 -131 7 -290 7 l-289 0 1 -22z"/>
<path d="M5473 6050 l1 -200 183 0 184 0 -2 -32 c0 -18 2 -43 5 -55 2 -13 2
-23 -2 -23 -4 0 -6 -28 -4 -62 1 -35 3 -69 2 -75 0 -14 0 -23 0 -75 0 -18 -1
-58 -2 -89 -1 -30 2 -60 5 -66 4 -7 3 -14 -3 -18 -6 -4 -8 -10 -6 -14 5 -8 6
-34 6 -176 0 -49 0 -105 0 -122 0 -18 0 -57 -1 -87 -1 -30 1 -59 5 -64 3 -6 2
-13 -3 -17 -6 -3 -7 -15 -2 -27 4 -12 5 -38 1 -59 -4 -20 -3 -44 2 -52 5 -9 4
-18 -1 -22 -6 -3 -7 -15 -2 -27 4 -12 5 -38 1 -59 -4 -20 -3 -44 2 -52 5 -9 4
-18 -1 -22 -6 -3 -7 -15 -2 -27 4 -12 5 -38 1 -59 -4 -20 -3 -44 2 -52 5 -9 4
-18 -1 -22 -6 -3 -7 -16 -3 -28 4 -12 6 -35 5 -52 -2 -16 -3 -68 -3 -115 0
-136 0 -142 -2 -201 -1 -30 2 -60 5 -66 4 -7 4 -14 0 -16 -5 -3 -7 -26 -5 -51
l4 -46 264 0 c246 0 264 1 273 18 7 13 7 22 0 29 -8 8 -8 13 0 17 7 4 7 15 1
31 -5 13 -6 26 -2 29 5 3 5 29 2 60 -3 30 -3 62 0 72 4 9 3 37 0 61 -4 24 -4
46 0 48 3 2 3 28 0 59 -3 30 -3 62 0 72 4 9 3 37 0 61 -4 24 -4 46 0 48 3 2 3
28 0 59 -3 30 -3 62 0 72 4 9 3 37 0 61 -4 24 -4 46 0 48 3 2 3 28 0 59 -3 30
-3 62 0 72 4 9 3 37 0 61 -4 24 -4 46 0 48 3 2 3 28 0 59 -3 30 -3 62 0 72 4
9 3 37 0 61 -4 24 -4 46 0 48 3 2 3 28 0 59 -3 30 -3 62 0 72 4 9 3 37 0 61
-4 24 -4 46 0 48 3 2 3 28 0 59 -3 30 -3 62 0 72 4 9 3 37 0 61 -4 24 -3 46 2
49 4 3 6 9 3 13 -2 5 -5 35 -5 67 0 32 0 78 0 102 l-1 42 181 0 c180 0 180 0
181 23 0 12 1 101 1 197 l1 175 -635 3 -635 2 0 -200z"/>
<path d="M8678 6244 c-4 -3 -2 -18 2 -34 4 -16 6 -31 3 -34 -6 -5 -8 -89 -3
-111 1 -5 1 -14 0 -20 -4 -24 -1 -196 5 -205 3 -6 2 -10 -2 -10 -7 0 -9 -54
-2 -86 1 -5 0 -13 -1 -19 -1 -5 -1 -46 0 -90 0 -44 1 -87 1 -95 -3 -80 -3
-106 -1 -115 1 -5 1 -14 0 -20 -4 -24 -1 -196 5 -205 3 -6 2 -10 -2 -10 -7 0
-9 -54 -2 -86 1 -5 1 -13 -1 -19 -4 -25 -1 -456 4 -464 4 -5 2 -11 -3 -13 -6
-2 -7 -17 -2 -40 5 -20 6 -40 3 -43 -8 -7 -5 -113 3 -125 4 -6 2 -10 -2 -10
-7 0 -9 -54 -2 -86 1 -5 0 -13 -1 -19 -4 -21 0 -116 5 -125 4 -6 2 -10 -2 -10
-7 0 -9 -54 -2 -86 1 -5 1 -13 -1 -19 -1 -9 -2 -122 -1 -192 l1 -33 163 0 164
0 63 143 c34 78 77 174 95 212 18 39 47 104 65 145 18 41 43 98 55 125 13 28
53 118 90 200 37 83 75 169 86 193 37 82 58 128 79 177 12 28 35 77 50 110 15
33 31 69 35 80 l7 20 8 -20 c4 -11 5 -24 3 -28 -8 -14 -10 -68 -2 -73 4 -2 4
-18 -1 -34 -5 -17 -5 -43 0 -59 4 -16 6 -32 3 -35 -8 -8 -9 -77 -1 -83 5 -2 5
-9 2 -15 -6 -9 -9 -119 -4 -143 1 -5 1 -14 0 -20 -3 -12 -2 -126 0 -140 1 -5
1 -14 0 -20 -3 -12 -2 -126 0 -140 1 -5 1 -14 0 -20 -1 -5 -2 -35 -1 -65 2
-70 2 -66 -1 -128 -2 -30 -1 -55 3 -58 4 -2 4 -18 -1 -34 -5 -17 -5 -43 0 -59
4 -16 6 -32 3 -34 -8 -8 -9 -108 -2 -113 4 -2 4 -17 0 -32 -15 -52 -16 -52
215 -52 l214 0 0 93 c1 124 1 2297 0 2320 0 15 -15 17 -174 17 l-174 0 -22
-52 c-12 -29 -34 -80 -50 -113 -29 -63 -34 -76 -98 -220 -22 -49 -47 -103 -56
-120 -9 -16 -16 -34 -16 -39 0 -5 -15 -41 -34 -80 -18 -39 -50 -109 -71 -156
-21 -47 -50 -113 -66 -148 -16 -35 -32 -74 -35 -88 -3 -13 -10 -24 -15 -24 -5
0 -9 -5 -9 -11 0 -5 -11 -34 -24 -62 -13 -29 -34 -77 -47 -107 -13 -30 -35
-79 -49 -109 l-27 -54 0 669 c-1 368 -2 679 -2 692 l-1 22 -208 0 c-115 0
-211 -3 -214 -6z"/>
<path d="M3196 3482 c-2 -1 -25 -5 -52 -8 -282 -29 -469 -178 -539 -431 -9
-32 -19 -65 -22 -73 -5 -16 -8 -40 -18 -154 -3 -38 -8 -72 -10 -77 -3 -4 -1
-10 5 -14 6 -4 7 -11 3 -17 -9 -16 -10 -139 0 -145 4 -2 4 -9 1 -15 -10 -16
-11 -288 -1 -288 5 0 5 -5 1 -12 -11 -17 -11 -108 -1 -108 5 0 5 -5 1 -12 -11
-17 -11 -108 -1 -108 5 0 5 -5 1 -12 -11 -17 -11 -108 -1 -108 5 0 5 -5 1 -12
-10 -17 -11 -108 -1 -108 4 0 3 -8 -2 -19 -6 -10 -8 -20 -6 -23 3 -2 7 -35 10
-74 17 -237 72 -381 190 -499 85 -86 192 -142 300 -159 17 -2 30 -5 30 -6 0
-5 94 -11 185 -12 128 -2 210 4 210 15 0 5 4 5 10 2 11 -7 122 21 170 43 94
43 187 121 236 197 31 49 64 119 64 138 0 9 5 17 12 17 6 0 9 3 6 6 -3 3 1 29
8 57 8 29 17 72 20 97 2 25 7 65 10 90 7 62 7 1066 0 1165 -3 44 -8 91 -11
105 -3 14 -8 39 -10 55 -42 239 -208 421 -440 479 -81 20 -347 41 -359 28z
m134 -385 c0 -4 4 -5 10 -2 13 8 50 -12 77 -42 27 -31 40 -70 50 -148 9 -70 8
-1287 -1 -1357 -12 -99 -69 -176 -131 -179 -16 -1 -41 -2 -55 -3 -90 -5 -148
54 -165 169 -8 49 -8 1326 0 1383 12 97 48 155 109 176 39 14 106 16 106 3z"/>
<path d="M8517 3484 c-1 -1 -31 -5 -66 -8 -36 -4 -67 -9 -70 -10 -3 -2 -23 -7
-44 -10 -21 -3 -54 -13 -75 -22 -20 -10 -43 -18 -51 -20 -7 -1 -36 -18 -65
-37 -141 -94 -220 -224 -261 -432 -16 -79 -19 -201 -19 -710 1 -497 4 -628 17
-690 11 -48 21 -111 19 -117 -1 -5 2 -8 8 -8 6 0 9 -3 8 -7 -5 -15 35 -108 70
-162 79 -125 213 -213 376 -247 111 -24 342 -23 456 1 14 2 35 7 47 9 12 3 30
9 40 14 10 6 22 10 26 10 11 0 71 24 77 31 3 4 18 13 34 21 34 17 146 124 146
139 0 5 6 16 13 23 18 18 74 138 82 178 1 3 4 19 8 35 7 30 14 69 25 135 9 54
8 1217 -1 1283 -46 333 -196 511 -487 576 -41 10 -99 17 -127 17 -29 -1 -53 1
-53 4 0 4 -128 8 -133 4z m124 -383 c51 -2 110 -72 128 -151 8 -36 7 -1366 -1
-1422 -12 -83 -58 -143 -117 -155 -51 -10 -119 -5 -152 13 -34 17 -70 82 -78
139 -8 59 -6 1373 2 1419 19 104 83 165 166 160 14 -1 38 -2 52 -3z"/>
<path d="M60 2235 l0 -1217 463 5 c254 2 473 7 487 11 14 4 38 10 55 13 67 12
197 70 247 111 43 35 108 107 108 119 0 7 4 13 8 13 8 0 38 54 40 73 1 4 8 20
15 35 46 91 71 324 51 472 -18 134 -83 271 -161 339 -52 46 -148 96 -206 106
-39 8 -42 17 -5 22 38 6 136 64 176 105 83 83 123 198 127 361 6 279 -90 466
-290 562 -61 30 -88 39 -180 60 -59 14 -167 19 -532 22 l-403 4 0 -1216z m797
819 c42 -21 67 -43 91 -78 18 -27 30 -51 27 -54 -3 -3 0 -11 5 -17 25 -30 14
-229 -17 -305 -16 -37 -58 -79 -95 -95 -64 -26 -254 -38 -267 -17 -4 8 -6 546
-2 596 1 4 46 6 101 4 85 -4 108 -9 157 -34z m-58 -938 c156 -25 225 -137 222
-361 -1 -66 -7 -140 -11 -140 -1 0 -3 -11 -6 -24 -12 -67 -94 -165 -146 -175
-7 -2 -29 -6 -49 -10 -62 -13 -199 -14 -206 -2 -9 14 -10 709 -1 716 9 7 144
4 197 -4z"/>
<path d="M4359 3448 c-1 -4 -1 -2388 0 -2410 1 -17 21 -18 269 -18 l267 0 0
528 0 527 27 1 c23 1 29 -5 38 -35 6 -20 15 -45 20 -56 5 -11 28 -78 51 -150
23 -71 46 -136 52 -142 5 -7 7 -13 4 -13 -3 0 10 -46 30 -102 19 -57 37 -110
39 -118 2 -8 20 -62 40 -120 19 -58 37 -112 39 -120 2 -8 13 -39 24 -68 10
-28 17 -52 14 -52 -3 0 -1 -6 4 -12 6 -7 13 -25 17 -40 l6 -28 275 0 c258 0
275 1 275 18 0 10 -4 22 -8 28 -9 9 -61 152 -67 183 -2 9 -13 38 -24 65 -12
27 -23 56 -25 65 -2 9 -6 23 -9 31 -4 8 -27 74 -53 145 -25 72 -52 148 -60
170 -8 22 -16 45 -17 50 -3 12 -36 103 -47 130 -10 23 -70 195 -74 210 -2 6
-8 21 -13 35 -6 14 -20 57 -33 95 -19 60 -20 74 -9 100 7 17 13 33 13 37 1 3
4 10 9 14 4 4 7 17 7 29 0 11 5 26 12 33 6 6 13 17 14 24 2 12 173 456 193
503 5 11 32 81 61 155 44 114 96 248 117 298 4 10 -50 12 -263 10 l-269 -3
-62 -165 c-33 -91 -66 -176 -71 -190 -5 -14 -54 -144 -107 -290 -117 -318
-117 -317 -147 -315 l-23 2 0 481 0 482 -267 0 c-148 0 -268 -1 -269 -2z"/>
<path d="M6078 3438 c-2 -7 -4 -553 -4 -1213 l1 -1200 268 -3 267 -2 1 22 c0
13 1 251 1 531 1 365 4 507 12 508 16 1 328 1 347 0 14 -1 16 -52 17 -508 0
-280 1 -518 1 -530 l1 -23 268 0 268 0 0 1215 0 1215 -268 0 -268 0 -1 -22 c0
-13 -1 -233 -1 -490 -1 -258 -4 -468 -7 -469 -3 -1 -88 -2 -188 -3 l-181 -1 0
490 0 490 -265 3 c-207 2 -266 0 -269 -10z"/>
</g>
</svg>
